inDegrees=no
num_controls=7
num_derivatives=13
num_iterations=153
num_multipliers=7
num_parameters=0
num_slacks=7
num_states=26
objective=5.739270
objective_accelerations=0.505708
objective_balance=0.024753
objective_effort=0.520026
objective_height=4.593188
objective_ligament=0.095596
solver_duration=1658.281708
status=Solve_Succeeded
success=true
DataType=double
version=3
OpenSimVersion=4.4-2022-07-23-0e9fedc
endheader
time	/jointset/ground_pelvis/pelvis_tilt/value	/jointset/ground_pelvis/pelvis_tx/value	/jointset/ground_pelvis/pelvis_ty/value	/jointset/hip_l/hip_flexion_l/value	/jointset/hip_l/hip_adduction_l/value	/jointset/hip_l/hip_rotation_l/value	/jointset/back/lumbar_extension/value	/jointset/patellofemoral_l/patellar_flexion_l/value	/jointset/knee_l/knee_flexion_l/value	/jointset/knee_l/knee_adduction_l/value	/jointset/knee_l/knee_rotation_l/value	/jointset/ankle_l/ankle_angle_l/value	/jointset/subtalar_l/subtalar_angle_l/value	/jointset/ground_pelvis/pelvis_tilt/speed	/jointset/ground_pelvis/pelvis_tx/speed	/jointset/ground_pelvis/pelvis_ty/speed	/jointset/hip_l/hip_flexion_l/speed	/jointset/hip_l/hip_adduction_l/speed	/jointset/hip_l/hip_rotation_l/speed	/jointset/back/lumbar_extension/speed	/jointset/patellofemoral_l/patellar_flexion_l/speed	/jointset/knee_l/knee_flexion_l/speed	/jointset/knee_l/knee_adduction_l/speed	/jointset/knee_l/knee_rotation_l/speed	/jointset/ankle_l/ankle_angle_l/speed	/jointset/subtalar_l/subtalar_angle_l/speed	/forceset/tau_hip_flexion_l	/forceset/tau_hip_adduction_l	/forceset/tau_hip_rotation_l	/forceset/tau_knee_flexion_l	/forceset/tau_ankle_angle_l	/forceset/tau_subtalar_angle_l	/forceset/tau_lumbar_extension	lambda_cid13_p0	lambda_cid13_p1	lambda_cid13_p2	lambda_cid13_p3	lambda_cid13_p4	lambda_cid13_p5	lambda_cid14_p0	/jointset/ground_pelvis/pelvis_tilt/accel	/jointset/ground_pelvis/pelvis_tx/accel	/jointset/ground_pelvis/pelvis_ty/accel	/jointset/hip_l/hip_flexion_l/accel	/jointset/hip_l/hip_adduction_l/accel	/jointset/hip_l/hip_rotation_l/accel	/jointset/back/lumbar_extension/accel	/jointset/patellofemoral_l/patellar_flexion_l/accel	/jointset/knee_l/knee_flexion_l/accel	/jointset/knee_l/knee_adduction_l/accel	/jointset/knee_l/knee_rotation_l/accel	/jointset/ankle_l/ankle_angle_l/accel	/jointset/subtalar_l/subtalar_angle_l/accel	gamma_cid13_p0	gamma_cid13_p1	gamma_cid13_p2	gamma_cid13_p3	gamma_cid13_p4	gamma_cid13_p5	gamma_cid14_p0
1	-0.1876319911733784	-0.1020291415762801	0.6899809673515189	1.391816791212625	-0.3266668707430988	0.03512508572616466	-0.9599306974720172	1.268125530139606	1.268125530139601	-0.07638883575860943	-0.1745316542609942	0.1489849032728169	0.01504985627451031	0.1004269167444186	0.02418901528339746	0.07062440578875764	-0.2914199239462393	-0.003243401839103686	-0.06414196702467673	-8.501203026987747e-05	-0.1631390413291799	-0.16313904132918	-0.0003442139926105672	-1.746950908752427e-05	0.019382585647676	0.004349244881157862	-0.4198586660789818	0.00140277446211064	-0.002774701159810488	-0.3196208587816117	0.1201930184607334	0.03877624867083668	0.4463603397010233	-12.43359046125238	-14.26139081832613	1.360050758228544	6.117586521766754	-796.2387734746737	-71.19647791222248	-0.2349026824767528	1.139167801000739	0.1465170867428404	1.46261027814592	-5.198081087650159	-0.1018218228976752	-1.546961158166924	-0.004320827657749141	-4.498941782934923	-4.498941782934792	-0.2563877699626397	-0.0128241472807041	-0.7416494603384473	-0.3665510015550348	-9.104714352995057e-09	-3.577682402520214e-09	5.243331040697887e-08	1.926793551636689e-09	-2.152883735526706e-08	8.256991793062789e-08	-1.43016529364686e-08
1.01	-0.1865712105501194	-0.1017798950527314	0.6907600972520506	1.388643696193899	-0.3267036592900678	0.03440589401556668	-0.9599310818791871	1.26626958671797	1.266269586718058	-0.07640356848959665	-0.1745317065494686	0.1491417136820412	0.01507590471715312	0.1117308198231403	0.0256657021203929	0.08518786826866936	-0.3431751359394139	-0.004105707906445178	-0.07968864200628094	2.091344136445116e-05	-0.2080366670511721	-0.2080366670511571	-0.002600529043224115	5.849548127617131e-06	0.01196811269023514	0.0008660233920907271	-0.4189542454159034	0.001576040374756403	-0.002826176275460359	-0.3193857397472968	0.1200401144431849	0.03891594039144657	0.4458894305432392	-12.44047861329465	-14.32989643174663	1.381302313711818	6.005035408540532	-795.7368646607856	-71.29480982241354	-0.2489204650452753	1.126241290267556	0.1490581042790427	1.451152758441403	-5.160652432638638	-0.07714914569569607	-1.557376505913545	0.01996674848702759	-4.483222795509768	-4.483222795507651	-0.2099922442796924	0.009752648510303963	-0.7430543538209355	-0.3383772853935547	-1.544564427749067e-08	-1.075998973918865e-08	7.095878954880029e-08	8.523947119186936e-09	-2.777245854749021e-08	9.691035370241134e-08	-1.885058231535127e-08
1.02	-0.1853973429502711	-0.1015157189363927	0.691684449482487	1.384953766819789	-0.326748813727113	0.03353146438761088	-0.9599300235347263	1.263965057073378	1.263965057073525	-0.07644081214542231	-0.1745315571041764	0.149224037733617	0.0150672870323431	0.1230443120602474	0.02717493384138106	0.09966887176971354	-0.3947867950320968	-0.004916579855526873	-0.09518955049813971	0.0002035394694885004	-0.2528562859202961	-0.2528562859202667	-0.004846398960593312	2.28772568471982e-05	0.004485314117835571	-0.002583980609416844	-0.4180498247526636	0.001749306287432266	-0.002877651391136821	-0.3191506207129761	0.1198872104256154	0.03905563211208434	0.4454185213856073	-12.45733178733569	-14.39577097037963	1.401122146684941	5.932584182871238	-795.3661549353352	-71.37591133222487	-0.267007544369174	1.141085632677889	0.1530260635413395	1.446118482372398	-5.169370507551835	-0.09153499924571047	-1.537807860217825	0.01101928363987319	-4.483340412361293	-4.483340412361293	-0.2542987433137691	-0.01408241697981072	-0.7553145833302628	-0.3599075040431436	-2.196493006594696e-08	-1.954578586700818e-08	8.786572751552081e-08	1.485005009021051e-08	-3.436573663688624e-08	1.105222082161605e-07	-2.346922910862327e-08
1.03	-0.1841108098448885	-0.1012360295422639	0.6927531955273113	1.380748679839568	-0.3268017948447666	0.03250234466842665	-0.9599244840397848	1.261212749058384	1.261212749058512	-0.0765005229359972	-0.174531230783058	0.1492315139414749	0.01502448480834316	0.1342132078718737	0.0287945459210544	0.1140665301670028	-0.4461848279905654	-0.005670721845496724	-0.1106232636146134	0.001143595967054557	-0.2975902629779121	-0.2975902629778997	-0.007098357307520304	3.986776303746773e-05	-0.002969334510372251	-0.005958436214242992	-0.4190517353457842	0.00212071177259359	-0.00295162976905725	-0.3183571565684706	0.1196334993564211	0.03935085528348908	0.4471551222824549	-12.55620813658092	-14.52507638646049	1.44275703100961	5.389751406875135	-796.2258637122219	-71.47012470237894	-0.2895990076192657	1.097423854846851	0.1711731935509912	1.434510231639067	-5.118157447802195	-0.06602184859354582	-1.544507685361512	0.1713842931951918	-4.466162591624937	-4.466162591627494	-0.2110488378601351	0.009236752425917073	-0.7374315317313413	-0.3235179257557928	-2.848603581219875e-08	-2.834794412534967e-08	1.047561497559648e-07	2.117338723882054e-08	-4.096258265380444e-08	1.241266282272766e-07	-2.808858730408291e-08
1.04	-0.1827140613215001	-0.1009391951446644	0.693965502298755	1.376030984978208	-0.3268620509922642	0.03131921688848689	-0.9599023668874976	1.258013554024982	1.258013554025083	-0.07658283420153437	-0.1745308051632953	0.1491650653572175	0.01494847736088432	0.1450873956611789	0.03060393453552148	0.1283810170935805	-0.49730837126135	-0.006371585824309248	-0.1259911626510628	0.003519070879823223	-0.3422336896020531	-0.3422336896020576	-0.009366493953563338	4.273698952399613e-05	-0.01029964430519157	-0.00922502530120802	-0.4200536459388727	0.002492117257769854	-0.003025608147029614	-0.317563692423964	0.1193797882872252	0.03964607845491142	0.4488917231793293	-12.66522489652684	-14.65181202299759	1.483075069301391	4.88536466263675	-797.2204528711547	-71.54782429892367	-0.3171889413665063	1.082144028213752	0.1909813705000403	1.429484188230073	-5.114472570015018	-0.0808793970142878	-1.524645044213029	0.2981029666795255	-4.465230325666256	-4.465230325666262	-0.2575344031369898	-0.01690667292065268	-0.7304468166526454	-0.3383342004710004	-3.141733969368207e-08	-3.68810895016779e-08	1.182444795189721e-07	2.10623129469263e-08	-4.489311533087317e-08	1.309903261076214e-07	-3.165068776053493e-08
1.05	-0.1812098932507802	-0.100623360520847	0.6953204576467985	1.370803512997982	-0.3269290283965955	0.02998284511865132	-0.9598499684446173	1.254368499924785	1.254368499924806	-0.07668796208993411	-0.1745304241497408	0.149025823128575	0.0148403278980155	0.155709875615621	0.03259028350820983	0.1425878848354774	-0.5481289149675349	-0.007010026471304714	-0.1412666691716026	0.007137851667500151	-0.3867497436306453	-0.3867497436306589	-0.01165835289899361	3.338800035006544e-05	-0.01753871651924476	-0.01238482026052013	-0.4200687508539985	0.002835697507557956	-0.003115325785312778	-0.3167429652791473	0.1193223498340597	0.03996905949365447	0.4496887170229281	-12.66107610646088	-14.812490214462	1.531172080099108	4.381648054168148	-797.3830031251032	-71.68433716060277	-0.3503752218373326	1.046845268483565	0.2065597994459814	1.41295312825128	-5.05728340080892	-0.05325478072610507	-1.526555505281357	0.4203507295097207	-4.440677848822984	-4.440677848824344	-0.2149207115294509	0.007070095043687686	-0.719127464928762	-0.3018030460397314	-3.42364622668914e-08	-4.540582822544321e-08	1.316264938920595e-07	2.075016329751634e-08	-4.874032571607162e-08	1.376433764213796e-07	-3.517974891264297e-08
